<svg xmlns="http://www.w3.org/2000/svg" version="1.1" xmlns:xlink="http://www.w3.org/1999/xlink" xmlns:svgjs="http://svgjs.dev/svgjs" viewBox="0 0 9.421566629402923 2.8660322676963133"><g transform="matrix(1,0,0,1,2.5763198693194034,0.46484113384815673)"><g><path d=" M 0.11775000000000001 1.0252499999999998 Q 0.043500000000000004 0.9854999999999998 -0.0015 0.9149999999999998 L 0.045 0.8639999999999999 Q 0.0885 0.9284999999999999 0.14775 0.9622499999999998 Q 0.20700000000000002 0.9959999999999999 0.2775 0.9959999999999999 Q 0.3825 0.9959999999999999 0.43425 0.9352499999999999 Q 0.486 0.8744999999999998 0.486 0.7484999999999999 L 0.486 0.0764999999999999 L 0.099 0.0764999999999999 L 0.099 0.00749999999999984 L 0.5625 0.00749999999999984 L 0.5625 0.7484999999999999 Q 0.5625 0.9059999999999999 0.4905 0.9854999999999998 Q 0.4185 1.065 0.2775 1.065 Q 0.192 1.065 0.11775000000000001 1.0252499999999998 M 1.101041748046875 0.9952499999999999 Q 0.9765417480468749 0.9254999999999999 0.905291748046875 0.8039999999999998 Q 0.8340417480468749 0.6824999999999999 0.8340417480468749 0.5324999999999999 Q 0.8340417480468749 0.38249999999999984 0.905291748046875 0.2609999999999999 Q 0.9765417480468749 0.13949999999999985 1.101041748046875 0.06974999999999987 Q 1.2255417480468749 -2.220446049250313e-16 1.380041748046875 -2.220446049250313e-16 Q 1.534541748046875 -2.220446049250313e-16 1.6590417480468749 0.06899999999999984 Q 1.783541748046875 0.1379999999999999 1.854791748046875 0.25949999999999984 Q 1.926041748046875 0.3809999999999999 1.926041748046875 0.5324999999999999 Q 1.926041748046875 0.6839999999999999 1.854791748046875 0.8054999999999999 Q 1.783541748046875 0.9269999999999998 1.6590417480468749 0.9959999999999999 Q 1.534541748046875 1.065 1.380041748046875 1.065 Q 1.2255417480468749 1.065 1.101041748046875 0.9952499999999999 M 1.618541748046875 0.9344999999999999 Q 1.725041748046875 0.8744999999999998 1.7865417480468748 0.7687499999999998 Q 1.848041748046875 0.6629999999999998 1.848041748046875 0.5324999999999999 Q 1.848041748046875 0.4019999999999999 1.7865417480468748 0.2962499999999999 Q 1.725041748046875 0.1904999999999999 1.618541748046875 0.13049999999999984 Q 1.512041748046875 0.0704999999999999 1.380041748046875 0.0704999999999999 Q 1.2480417480468748 0.0704999999999999 1.1407917480468748 0.13049999999999984 Q 1.033541748046875 0.1904999999999999 0.9720417480468749 0.2962499999999999 Q 0.9105417480468749 0.4019999999999999 0.9105417480468749 0.5324999999999999 Q 0.9105417480468749 0.6629999999999998 0.9720417480468749 0.7687499999999998 Q 1.033541748046875 0.8744999999999998 1.1407917480468748 0.9344999999999999 Q 1.2480417480468748 0.9944999999999999 1.380041748046875 0.9944999999999999 Q 1.512041748046875 0.9944999999999999 1.618541748046875 0.9344999999999999 M 2.2628107910156254 1.0252499999999998 Q 2.158560791015625 0.9854999999999998 2.100060791015625 0.9224999999999999 L 2.1345607910156255 0.8654999999999999 Q 2.1900607910156253 0.9239999999999999 2.2838107910156253 0.9607499999999999 Q 2.3775607910156253 0.9974999999999998 2.4810607910156253 0.9974999999999998 Q 2.631060791015625 0.9974999999999998 2.7075607910156254 0.9404999999999999 Q 2.784060791015625 0.8834999999999998 2.784060791015625 0.7919999999999998 Q 2.784060791015625 0.7214999999999998 2.743560791015625 0.6794999999999999 Q 2.7030607910156252 0.6375 2.643060791015625 0.6149999999999999 Q 2.583060791015625 0.5924999999999998 2.4810607910156253 0.5684999999999999 Q 2.3655607910156253 0.5399999999999999 2.2958107910156254 0.5129999999999999 Q 2.2260607910156254 0.4859999999999999 2.1773107910156253 0.42974999999999985 Q 2.1285607910156252 0.37349999999999983 2.1285607910156252 0.2789999999999999 Q 2.1285607910156252 0.2024999999999999 2.1690607910156254 0.13874999999999982 Q 2.209560791015625 0.07499999999999984 2.2928107910156252 0.03749999999999987 Q 2.3760607910156253 -2.220446049250313e-16 2.500560791015625 -2.220446049250313e-16 Q 2.5875607910156253 -2.220446049250313e-16 2.6715607910156254 0.025499999999999856 Q 2.7555607910156255 0.050999999999999934 2.817060791015625 0.09449999999999992 L 2.7885607910156254 0.15599999999999992 Q 2.725560791015625 0.11249999999999982 2.649810791015625 0.08999999999999986 Q 2.5740607910156252 0.0674999999999999 2.500560791015625 0.0674999999999999 Q 2.3550607910156254 0.0674999999999999 2.280060791015625 0.1259999999999999 Q 2.205060791015625 0.1844999999999999 2.205060791015625 0.27749999999999986 Q 2.205060791015625 0.34799999999999986 2.2455607910156252 0.3899999999999999 Q 2.2860607910156254 0.43199999999999983 2.346060791015625 0.4544999999999999 Q 2.406060791015625 0.47699999999999987 2.509560791015625 0.5024999999999998 Q 2.6250607910156254 0.5309999999999999 2.6940607910156253 0.5579999999999998 Q 2.7630607910156253 0.5849999999999999 2.8118107910156254 0.6397499999999998 Q 2.860560791015625 0.6944999999999999 2.860560791015625 0.7874999999999999 Q 2.860560791015625 0.8639999999999999 2.819310791015625 0.9269999999999998 Q 2.7780607910156254 0.9899999999999999 2.6925607910156253 1.0274999999999999 Q 2.607060791015625 1.065 2.4825607910156253 1.065 Q 2.3670607910156254 1.065 2.2628107910156254 1.0252499999999998 M 3.990073974609375 0.00749999999999984 L 3.990073974609375 1.0574999999999999 L 3.9135739746093754 1.0574999999999999 L 3.9135739746093754 0.5579999999999998 L 3.2115739746093754 0.5579999999999998 L 3.2115739746093754 1.0574999999999999 L 3.135073974609375 1.0574999999999999 L 3.135073974609375 0.00749999999999984 L 3.2115739746093754 0.00749999999999984 L 3.2115739746093754 0.4904999999999998 L 3.9135739746093754 0.4904999999999998 L 3.9135739746093754 0.00749999999999984 L 3.990073974609375 0.00749999999999984 M 4.472362792968751 0.9494999999999999 Q 4.362112792968751 0.8339999999999999 4.362112792968751 0.6119999999999999 L 4.362112792968751 0.00749999999999984 L 4.43861279296875 0.00749999999999984 L 4.43861279296875 0.6089999999999999 Q 4.43861279296875 0.8024999999999999 4.527112792968751 0.8984999999999999 Q 4.615612792968751 0.9944999999999999 4.783612792968751 0.9944999999999999 Q 4.950112792968751 0.9944999999999999 5.038612792968751 0.8984999999999999 Q 5.1271127929687506 0.8024999999999999 5.1271127929687506 0.6089999999999999 L 5.1271127929687506 0.00749999999999984 L 5.203612792968751 0.00749999999999984 L 5.203612792968751 0.6119999999999999 Q 5.203612792968751 0.8339999999999999 5.09261279296875 0.9494999999999999 Q 4.98161279296875 1.065 4.782112792968751 1.065 Q 4.58261279296875 1.065 4.472362792968751 0.9494999999999999 M 6.202635498046876 0.7619999999999999 L 5.593635498046875 0.7619999999999999 L 5.460135498046875 1.0574999999999999 L 5.3776354980468755 1.0574999999999999 L 5.860635498046875 0.00749999999999984 L 5.937135498046875 0.00749999999999984 L 6.420135498046875 1.0574999999999999 L 6.337635498046875 1.0574999999999999 L 6.202635498046876 0.7619999999999999 M 6.1741354980468754 0.6974999999999999 L 5.898135498046875 0.09149999999999991 L 5.623635498046875 0.6974999999999999 L 6.1741354980468754 0.6974999999999999" fill="#ffffff" fill-rule="nonzero"></path></g><g><path d=" M 0.52425 1.4113499999999997 L 0.52425 1.9363499999999998 L 0.46950000000000003 1.9363499999999998 L 0.46950000000000003 1.6940999999999997 L 0.14100000000000001 1.6940999999999997 L 0.14100000000000001 1.9363499999999998 L 0.0855 1.9363499999999998 L 0.0855 1.4113499999999997 L 0.14100000000000001 1.4113499999999997 L 0.14100000000000001 1.6453499999999999 L 0.46950000000000003 1.6453499999999999 L 0.46950000000000003 1.4113499999999997 L 0.52425 1.4113499999999997 M 0.7027412109375 1.4113499999999997 L 0.7582412109375 1.4113499999999997 L 0.7582412109375 1.9363499999999998 L 0.7027412109375 1.9363499999999998 L 0.7027412109375 1.4113499999999997 M 1.31549267578125 1.8883499999999998 L 1.31549267578125 1.9363499999999998 L 0.8849926757812498 1.9363499999999998 L 0.8849926757812498 1.8981 L 1.23299267578125 1.4593499999999997 L 0.8902426757812499 1.4593499999999997 L 0.8902426757812499 1.4113499999999997 L 1.3064926757812498 1.4113499999999997 L 1.3064926757812498 1.4495999999999998 L 0.9592426757812499 1.8883499999999998 L 1.31549267578125 1.8883499999999998 M 1.7955142822265624 1.6738499999999998 L 1.8487642822265626 1.6738499999999998 L 1.8487642822265626 1.8740999999999999 Q 1.8120142822265626 1.9063499999999998 1.7617642822265625 1.9235999999999998 Q 1.7115142822265625 1.9408499999999997 1.6560142822265624 1.9408499999999997 Q 1.5772642822265626 1.9408499999999997 1.5142642822265624 1.9063499999999998 Q 1.4512642822265625 1.8718499999999998 1.4152642822265624 1.8107249999999997 Q 1.3792642822265624 1.7495999999999998 1.3792642822265624 1.6738499999999998 Q 1.3792642822265624 1.5980999999999999 1.4152642822265624 1.5369749999999998 Q 1.4512642822265625 1.4758499999999999 1.5142642822265624 1.44135 Q 1.5772642822265626 1.40685 1.6567642822265625 1.40685 Q 1.7167642822265625 1.40685 1.7670142822265624 1.4259749999999998 Q 1.8172642822265626 1.4450999999999998 1.8517642822265625 1.4825999999999997 L 1.8172642822265626 1.5178499999999997 Q 1.7550142822265624 1.4563499999999998 1.6590142822265626 1.4563499999999998 Q 1.5952642822265624 1.4563499999999998 1.5438892822265624 1.4844749999999998 Q 1.4925142822265625 1.5125999999999997 1.4632642822265625 1.5624749999999998 Q 1.4340142822265625 1.6123499999999997 1.4340142822265625 1.6738499999999998 Q 1.4340142822265625 1.7353499999999997 1.4632642822265625 1.7848499999999998 Q 1.4925142822265625 1.8343499999999997 1.5435142822265624 1.86285 Q 1.5945142822265626 1.8913499999999999 1.6582642822265625 1.8913499999999999 Q 1.7392642822265625 1.8913499999999999 1.7955142822265624 1.8508499999999999 L 1.7955142822265624 1.6738499999999998 M 2.01302197265625 1.4113499999999997 L 2.0685219726562503 1.4113499999999997 L 2.0685219726562503 1.9363499999999998 L 2.01302197265625 1.9363499999999998 L 2.01302197265625 1.4113499999999997 M 2.5762734375000003 1.7960999999999998 L 2.2837734375000003 1.7960999999999998 L 2.2207734375 1.9363499999999998 L 2.1630234375 1.9363499999999998 L 2.4030234375 1.4113499999999997 L 2.4577734375 1.4113499999999997 L 2.6977734375 1.9363499999999998 L 2.6392734375 1.9363499999999998 L 2.5762734375000003 1.7960999999999998 M 2.5560234375 1.7510999999999999 L 2.4300234375 1.4690999999999999 L 2.3040234375 1.7510999999999999 L 2.5560234375 1.7510999999999999 M 3.1635084228515624 1.8883499999999998 L 3.1635084228515624 1.9363499999999998 L 2.7922584228515626 1.9363499999999998 L 2.7922584228515626 1.4113499999999997 L 3.1522584228515624 1.4113499999999997 L 3.1522584228515624 1.4593499999999997 L 2.8477584228515624 1.4593499999999997 L 2.8477584228515624 1.6460999999999997 L 3.1192584228515625 1.6460999999999997 L 3.1192584228515625 1.6933499999999997 L 2.8477584228515624 1.6933499999999997 L 2.8477584228515624 1.8883499999999998 L 3.1635084228515624 1.8883499999999998 M 3.7305058593750005 1.4113499999999997 L 3.498005859375 1.9363499999999998 L 3.4432558593750002 1.9363499999999998 L 3.2107558593750003 1.4113499999999997 L 3.2707558593750004 1.4113499999999997 L 3.4717558593750004 1.8673499999999998 L 3.674255859375 1.4113499999999997 L 3.7305058593750005 1.4113499999999997" fill="#ffffff" fill-rule="nonzero"></path></g><g clip-path="url(#SvgjsClipPath1001)"><g clip-path="url(#SvgjsClipPath100064635071-a3cf-41d5-ad0f-60e31a0c0c51)"><path d=" M -1.3393777015589101 0.4431379245577871 L -1.347142294220837 0.43864958196804893 L -1.4974057636489353 0.35190096055114894 L -1.5217316204120344 0.337859888813198 L -1.6221552856284158 0.2798894640010884 L -1.6300818906565504 0.2753111145412352 L -1.6316000065324916 0.2744350476721156 L -1.6813438034160837 0.24571685564740253 L -1.7340818288455047 0.2152585308004641 L -1.879802951561796 0.2993849520680121 C -1.9711659251865956 0.3521169770394254 -2.0579025456874804 0.4021787981974246 -2.1587522434224073 0.4604492459099181 L -2.1587522434224073 1.4759007540900808 C -2.0579025456874804 1.5341712018025744 -1.9711659251865956 1.584239023418581 -1.879802951561796 1.6369710483899946 L -1.764060117051828 1.703768146931389 L -1.764060117051828 0.7056579623933954 C -1.7640598447590172 0.6949394488429488 -1.7583414770631052 0.6850352359936454 -1.7490589720326324 0.6796759792201688 C -1.6657666144281693 0.6315703073726803 -1.5937371165040854 0.5899871333795204 -1.521707618580003 0.5484159603023756 C -1.4629871365169334 0.5144773698109882 -1.4042186507898031 0.4805927834416699 -1.3393777015589101 0.4431379245577871 Z M -1.7040555369751185 1.2133747157964652 C -1.627105663484744 1.2578261087172922 -1.5593484916621225 1.2969370940112923 -1.4917113289996546 1.3359760738092001 C -1.4240741663371863 1.3750150536071075 -1.3563769990946415 1.4140900361530617 -1.2793731214821993 1.458565430905919 C -1.1785234237472724 1.4002949831934255 -1.09178080278838 1.3502271615774188 -1.0004118287055728 1.2974891361479974 L -0.8546907059892814 1.2133747157964647 L -0.8546907059892814 0.7229752842035339 L -1.0004118287055728 0.6388608638520009 C -1.091762801414356 0.5861288388805876 -1.1785414251212951 0.5360430158905577 -1.2793731214821993 0.4777845690940793 C -1.356328995430581 0.5222299615568989 -1.424080166795195 0.5613409468508984 -1.4917113289996546 0.6003799266488062 C -1.5593424912041152 0.6394189064467147 -1.627051659362675 0.6784998894506759 -1.7040555369751185 0.7229692837455257 Z M -0.5479172903470986 0.37506272846075916 C -0.6429645451886079 0.32019454043861467 -0.7331754308759348 0.26813456676406083 -0.8396775600540884 0.20659386943738667 L -1.0003878268735413 0.11382078818078445 C -1.0917568009563485 0.06108276275136362 -1.178499421915241 0.011014941135356289 -1.2793491196501678 -0.04725550657713724 C -1.3563529972626114 -0.0027801118242792647 -1.4240201622151172 0.0362768693476518 -1.491687327167623 0.07533985097758976 C -1.5504378115207305 0.10925443963694698 -1.6091822954158301 0.1431450264642728 -1.6740472464787537 0.1806118862641707 L -1.6512455060496047 0.19381289388104728 L -1.491687327167623 0.28592592475680567 C -1.4196818310755708 0.3274970978339504 -1.3476283313194566 0.3690802718271103 -1.2643419741729836 0.4171859436746095 C -1.157023782705787 0.4791946767258818 -1.0662488539657389 0.531590676048866 -0.9703915372931942 0.5869208993376005 L -0.8096632690997172 0.6797059815102178 C -0.8003807640692484 0.6850652382837018 -0.7946623963733437 0.694969451133009 -0.7946621240805394 0.7056879646834343 L -0.7946621240805394 1.1787280712601724 L -0.7334934551503407 1.143397374511005 L -0.7276490090508692 1.1400251171106945 L -0.7069114261763589 1.1280242010953518 L -0.547899288973076 1.036217193577985 L -0.39996399725195486 0.9508246756708186 L -0.39996399725195486 0.46047324774194887 Z M -0.8096752700157337 1.2566740207798195 L -0.9704155391252256 1.349465103410445 C -1.066272855797769 1.404789326241172 -1.1570297831637946 1.4571853255641556 -1.2643599755470074 1.5191940586154287 C -1.2736427163900952 1.5245534515400023 -1.2850795247422746 1.5245534515400023 -1.2943622655853622 1.5191940586154287 C -1.3776426222738278 1.4710823863099218 -1.4496721201979128 1.4295052127747696 -1.5217016181219956 1.3879340396976239 C -1.5804461020170941 1.3540254514962755 -1.6391905859121938 1.3201288642109414 -1.7040435360591033 1.282668004869051 L -1.7040435360591033 1.7384147914676822 C -1.627039658446661 1.7828841857625322 -1.5593784939521615 1.8219471673924712 -1.4916993280836395 1.8610101490224098 C -1.4240201622151183 1.900073130652348 -1.3563649981786265 1.9391241113662714 -1.2793611205661843 1.9835995061191287 C -1.1785114228312574 1.9253290584066352 -1.0917688018723648 1.8752612367906285 -1.0003998277895578 1.822523211361207 L -0.8396775600540884 1.729750130104605 C -0.73318743179195 1.6682154332359382 -0.6429765461046242 1.6161494591033767 -0.5479292912631137 1.5612812710812323 L -0.39999399954199255 1.4758887531740656 L -0.39999399954199255 1.0201359661174272 L -0.5179150003087438 1.0882171626724628 C -0.6129862569822846 1.1430733497785912 -0.7031851417535964 1.1951393239111532 -0.8096752700157337 1.2566740207798195 Z" fill="#ffffff" transform="matrix(1,0,0,1,0,0)" fill-rule="nonzero"></path></g></g></g><defs><clipPath id="SvgjsClipPath1001"><path d=" M -2.1587342420483835 -0.04725550657713662 h 1.7587342420483834 v 2.030861013154273 h -1.7587342420483834 Z"></path></clipPath><clipPath id="SvgjsClipPath100064635071-a3cf-41d5-ad0f-60e31a0c0c51"><path d=" M -2.1587342420483835 -0.04725550657713662 L -0.40000000000000013 -0.04725550657713662 L -0.40000000000000013 1.9836055065771365 L -2.1587342420483835 1.9836055065771365 Z"></path></clipPath></defs></svg>